<?xml version="1.0" standalone="no"?>
<!DOCTYPE svg PUBLIC "-//W3C//DTD SVG 20010904//EN"
 "http://www.w3.org/TR/2001/REC-SVG-20010904/DTD/svg10.dtd">
<svg version="1.0" xmlns="http://www.w3.org/2000/svg"
 width="300.000000pt" height="300.000000pt" viewBox="0 0 300.000000 300.000000"
 preserveAspectRatio="xMidYMid meet">
<metadata>
Created by potrace 1.10, written by Peter Selinger 2001-2011
</metadata>
<g transform="translate(0.000000,300.000000) scale(0.100000,-0.100000)"
fill="#fe5001" stroke="none">
<path d="M280 1535 l0 -765 150 0 150 0 0 278 c0 261 -13 683 -25 800 -6 63 7
68 28 10 8 -24 36 -101 62 -173 26 -71 65 -177 86 -235 21 -58 68 -188 104
-290 36 -102 83 -230 103 -285 l38 -100 106 -3 105 -3 51 138 c28 76 80 221
117 323 36 102 84 232 105 290 21 58 60 164 85 235 26 72 51 135 57 140 7 7 8
-31 4 -120 -18 -342 -25 -579 -26 -782 l0 -223 170 0 170 0 0 269 0 269 218 5
c160 3 232 9 275 21 204 59 327 187 357 371 46 283 -120 518 -410 578 -36 7
-198 12 -468 12 l-413 0 -30 -85 c-17 -47 -36 -103 -44 -125 -7 -22 -41 -119
-75 -215 -86 -241 -110 -311 -174 -495 -31 -88 -59 -166 -61 -174 -4 -9 -9
-11 -15 -5 -8 8 -79 199 -115 309 -7 22 -34 99 -60 170 -55 155 -84 235 -161
457 l-59 168 -202 0 -203 0 0 -765z m2056 488 c51 -27 98 -80 115 -130 8 -21
13 -71 13 -110 -1 -62 -5 -80 -30 -119 -17 -28 -47 -57 -74 -72 -44 -26 -51
-27 -242 -30 l-198 -4 0 247 0 247 188 -4 c169 -3 191 -6 228 -25z"/>
</g>
</svg>
